# vtk DataFile Version 2.0
Really cool data
ASCII
DATASET STRUCTURED_POINTS
DIMENSIONS 3 4 6
ORIGIN 0 0 0
SPACING 1 1 1
POINT_DATA 72
SCALARS Scalars0 float 1
LOOKUP_TABLE default
0.0 0.0 0.0 0.0 0.0 0.0 0.0 0.0 0.0 0.0 0.0 0.0 0.0 5.0 10.0 15.0 20.0 25.0 25.0 20.0 15.0 10.0 5.0 0.0 0.0 10.0 20.0 30.0 40.0 50.0 50.0 40.0 30.0 20.0 10.0 0.0 0.0 10.0 20.0 30.0 40.0 50.0 50.0 40.0 30.0 20.0 10.0 0.0 0.0 5.0 10.0 15.0 20.0 25.0 25.0 20.0 15.0 10.0 5.0 0.0 0.0 0.0 0.0 0.0 0.0 0.0 0.0 0.0 0.0 0.0 0.0 0.0